<?xml version="1.0" encoding="UTF-8" standalone="no"?>
<!-- Created with Inkscape (http://www.inkscape.org/) -->

<svg
   width="81.010719mm"
   height="80.999084mm"
   viewBox="0 0 81.010719 80.999084"
   version="1.1"
   id="svg1"
   xml:space="preserve"
   xmlns="http://www.w3.org/2000/svg"
   xmlns:svg="http://www.w3.org/2000/svg"><defs
     id="defs1" /><path
     style="opacity:1;fill:#999999;stroke-width:1;stroke-linecap:round;stroke-linejoin:round;paint-order:stroke markers fill"
     d="m 21.707051,80.99908 h 37.347562 c 0,0 -3.776604,-2.597462 -2.644802,-4.031078 1.131801,-1.433615 2.565416,-1.96179 2.565416,-1.96179 0,0 2.565419,0.980895 4.376304,0.829988 1.810882,-0.150906 9.356225,-2.112696 12.676185,-5.885371 3.319951,-3.772672 4.829021,-5.88537 4.979921,-6.790811 0.15091,-0.905442 -5.281741,-14.939786 -5.281741,-14.939786 0,0 -1.46549,6.048664 -5.9472,6.368786 -4.481705,0.320122 -4.85518,-2.774389 -4.695121,-4.855181 0.160063,-2.080794 -0.565508,-2.263347 -2.419154,-1.627681 -1.627955,0.558271 -2.782827,2.187894 -3.129627,2.561369 -0.346797,0.373475 -0.853656,5.46875 -4.535058,8.136432 -3.681405,2.667683 -8.536586,3.948171 -10.350611,-0.266769 -1.814023,-4.214939 0.106706,-12.644815 4.96189,-14.992376 4.855183,-2.34756 7.896341,-1.547257 8.803354,0.640244 0.907013,2.187498 0.853657,2.61433 1.280488,2.881096 0.426828,0.266769 0.755216,-0.720989 2.786226,-1.349468 1.859093,-0.575281 2.437644,-0.349018 3.047629,-0.732431 0.478629,-0.300848 1.689014,-2.773279 3.236264,-4.320536 1.54726,-1.54726 3.30793,-2.347564 3.30793,-2.347564 0,0 -4.80183,-13.125 -8.109757,-21.341463 C 60.655223,8.7582264 57.133881,0.22164148 54.78632,0.00822648 52.43876,-0.20518752 50.091199,3.7429834 48.597295,10.678958 c -1.493903,6.935976 -1.707316,6.935976 -2.454267,8.216464 -0.746953,1.280488 -3.503475,1.369301 -5.955712,1.859748 -2.452238,0.490448 -4.904476,1.471343 -7.39444,1.471343 -2.489965,0 -21.126971,-1.395889 -25.1260047,-1.62225 -3.999035,-0.226362 -6.488999,-0.377267 -7.54534504,1.207256 -1.056349,1.584521 4.97992604,7.092625 10.11076274,11.921646 5.130834,4.829022 11.31802,9.808951 11.31802,9.808951 0,0 -0.504464,4.770307 1.056348,9.507136 1.642024,4.983298 4.678115,5.734465 3.923582,10.261673 -0.754536,4.527209 -3.923581,9.507135 -4.527209,13.279811 -0.603628,3.772672 -0.295979,4.408344 -0.295979,4.408344 z"
     id="path1" /></svg>
